<svg width="1280" height="377" viewBox="0 0 1280 377" fill="none" xmlns="http://www.w3.org/2000/svg">
<path d="M547.211 222.715C571.835 222.96 588.207 213.272 588.425 191.431C588.572 176.656 580.733 168.227 566.872 162.306L549.176 154.421C542.354 151.355 539.805 149.188 539.844 145.334C539.88 141.693 542.259 139.361 549.968 139.438C558.961 139.528 568.781 142.624 577.736 146.568L586.735 124.6C575.215 120.202 563.035 117.511 551.686 117.398C526.847 117.15 513.25 127.722 513.058 146.994C512.93 159.842 519.47 169.758 535.034 176.766L552.729 184.651C558.483 187.493 561.248 189.447 561.209 193.302C561.16 198.227 557.07 200.327 548.934 200.246C536.942 200.127 525.638 195.517 515.846 189.638L504.918 211.8C517.907 219.211 533.506 222.579 547.211 222.715ZM654.911 223.788C668.401 223.922 679.356 220.605 689.698 214.283L678.564 192.543C672.1 196.548 664.578 199.257 655.584 199.167C639.31 199.005 627.646 187.539 627.813 170.837C627.979 154.135 639.869 142.903 656.143 143.066C665.136 143.155 672.603 146.013 678.987 150.146L690.551 128.632C680.337 122.106 669.45 118.571 655.96 118.436C624.055 118.119 601.148 138.877 600.833 170.568C600.517 202.259 623.006 223.47 654.911 223.788ZM743.274 224.668C759.334 224.828 770.108 218.082 776.42 207.866L776.849 207.87L776.71 221.789L802.834 222.049L803.819 123.121L777.695 122.861L777.557 136.78L777.129 136.775C771.021 126.435 760.383 119.477 744.323 119.317C718.414 119.059 696.599 137.686 696.262 171.519C695.925 205.351 717.364 224.41 743.274 224.668ZM750.159 199.895C734.314 199.737 723.504 188.494 723.671 171.792C723.837 155.09 734.868 144.064 750.714 144.222C766.559 144.379 777.369 155.623 777.203 172.325C777.036 189.027 766.005 200.053 750.159 199.895ZM888.459 120.752C873.898 120.607 862.695 127.348 855.944 138.631L855.516 138.627L855.665 123.638L829.755 123.38L828.77 222.307L854.894 222.568L855.376 174.174C855.589 152.762 865.304 144.935 878.794 145.069C891.642 145.197 899.068 152.124 898.908 168.184L898.362 223L924.7 223.263L925.308 162.236C925.598 133.115 909.872 120.966 888.459 120.752Z" fill="white"/>
<path d="M367.664 316.806C361.868 316.749 358.004 314.193 355.83 310.358L355.678 310.356L355.626 315.542L348.152 315.468L348.684 262.082L356.158 262.157L355.925 285.494L356.078 285.495C358.328 281.704 362.242 279.226 368.038 279.284C377.343 279.377 385.128 286.471 385.011 298.216C384.894 309.961 376.969 316.899 367.664 316.806ZM366.136 309.469C372.695 309.534 377.013 304.848 377.079 298.137C377.146 291.426 372.923 286.655 366.364 286.589C359.805 286.524 355.487 291.21 355.42 297.921C355.353 304.633 359.577 309.404 366.136 309.469ZM417.354 280.919L425.59 281.001L403.123 331.27L395.191 331.191L403.841 312.819L389.364 280.641L398.287 280.729L407.743 303.934L417.354 280.919ZM512.552 317.105L502.485 317.005L499.315 313.694C494.863 316.472 489.509 318.02 483.636 317.962C467.773 317.804 455.913 306.245 456.077 289.848C456.24 273.451 468.328 262.13 484.191 262.288C500.054 262.446 511.914 274.005 511.75 290.402C511.676 297.876 509.094 304.334 504.853 309.02L512.552 317.105ZM483.717 309.877C487.377 309.914 490.665 309.108 493.427 307.533L482.179 295.828L492.322 295.929L498.965 302.86C501.515 299.529 503.007 295.196 503.056 290.315C503.17 278.876 495.397 270.485 484.11 270.372C472.823 270.26 464.885 278.494 464.771 289.934C464.657 301.374 472.429 309.765 483.717 309.877ZM557.82 317.556L552.842 304.235L529.505 304.003L524.263 317.222L515.569 317.136L537.912 263.967L545.234 264.04L566.514 317.643L557.82 317.556ZM532.4 296.71L550.093 296.886L541.474 273.918L532.4 296.71ZM618.809 264.773L618.277 318.159L609.965 318.076L584.127 277.928L583.974 277.926L583.577 317.813L575.645 317.734L576.177 264.348L584.49 264.431L610.328 304.579L610.48 304.581L610.878 264.694L618.809 264.773ZM631.489 333.545L631.991 283.057L639.465 283.132L639.414 288.318L639.566 288.319C641.816 284.528 645.731 282.05 651.527 282.108C660.831 282.2 668.616 289.295 668.499 301.04C668.382 312.785 660.457 319.723 651.153 319.63C645.357 319.572 641.492 317.017 639.319 313.182L639.166 313.18L638.963 333.619L631.489 333.545ZM649.624 312.293C656.183 312.358 660.501 307.672 660.568 300.961C660.635 294.25 656.411 289.479 649.852 289.413C643.293 289.348 638.975 294.034 638.909 300.745C638.842 307.456 643.066 312.227 649.624 312.293ZM687.029 265.453L686.497 318.838L679.023 318.764L679.555 265.378L687.029 265.453ZM714.287 320.259C704.983 320.166 697.198 313.072 697.315 301.327C697.431 289.582 705.357 282.644 714.661 282.737C720.457 282.794 724.322 285.35 726.495 289.185L726.648 289.187L726.699 284.001L734.173 284.075L733.823 319.309L726.349 319.235L726.4 314.049L726.248 314.047C723.998 317.839 720.083 320.317 714.287 320.259ZM715.962 312.953C722.521 313.019 726.838 308.333 726.905 301.622C726.972 294.91 722.748 290.139 716.19 290.074C709.631 290.009 705.313 294.695 705.246 301.406C705.179 308.117 709.403 312.888 715.962 312.953ZM764.181 290.705L757.012 290.633L756.828 309.089C756.803 311.606 757.859 312.761 760.452 312.786L762.283 312.805L762.214 319.669L758.782 319.634C752.605 319.573 749.282 316.26 749.34 310.464L749.538 290.559L743.284 290.496L743.347 284.166L749.601 284.229L749.742 270.12L757.216 270.194L757.075 284.303L764.244 284.375L764.181 290.705ZM790.262 272.659C786.678 272.623 783.839 274.349 783.788 279.459L783.737 284.569L790.677 284.638L790.614 290.968L783.674 290.899L783.386 319.803L775.912 319.729L776.2 290.824L770.632 290.769L770.695 284.439L776.263 284.494L776.311 279.613C776.398 270.919 781.332 265.629 790.026 265.716L791.475 265.73L791.406 272.67L790.262 272.659ZM815.125 283.737C826.183 283.847 834.341 291.861 834.233 302.691C834.125 313.52 825.809 321.37 814.751 321.26C803.693 321.15 795.535 313.136 795.643 302.306C795.751 291.477 804.066 283.627 815.125 283.737ZM815.052 291.059C808.34 290.992 803.643 295.445 803.574 302.385C803.505 309.325 808.113 313.871 814.824 313.938C821.535 314.005 826.232 309.552 826.301 302.612C826.37 295.672 821.763 291.126 815.052 291.059ZM864.575 284.306L864.487 293.077L863.343 293.065C856.022 292.992 852.097 296.462 852.014 304.851L851.858 320.485L844.384 320.411L844.735 285.176L852.209 285.251L852.132 292.954L852.285 292.955C854.015 287.709 858.092 284.242 864.041 284.301L864.575 284.306ZM872.99 320.696L873.34 285.461L880.814 285.536L880.76 291.027L880.912 291.028C883.019 286.32 887.08 284.454 891.579 284.499C896.613 284.549 900.175 286.796 902.185 291.774L902.337 291.776C904.523 286.763 909.044 284.673 913.467 284.717C920.102 284.783 925.476 288.955 925.372 299.403L925.155 321.215L917.681 321.141L917.894 299.71C917.943 294.829 915.528 292.212 911.029 292.167C906.453 292.122 903.067 295.063 902.991 302.689L902.809 320.993L895.335 320.918L895.549 299.488C895.597 294.607 893.183 291.99 888.607 291.944C884.107 291.899 880.722 294.84 880.645 302.543L880.464 320.77L872.99 320.696Z" fill="#D5D5D5"/>
<rect x="958" width="322" height="155" rx="77.5" fill="#00ADEE"/>
<path d="M1018.39 100V59.5938H1003.3V54.1875H1039.61V59.5938H1024.45V100H1018.39ZM1063.62 89.3125L1069.43 90.0312C1068.51 93.4271 1066.81 96.0625 1064.33 97.9375C1061.85 99.8125 1058.69 100.75 1054.83 100.75C1049.98 100.75 1046.13 99.2604 1043.27 96.2812C1040.44 93.2812 1039.02 89.0833 1039.02 83.6875C1039.02 78.1042 1040.46 73.7708 1043.33 70.6875C1046.21 67.6042 1049.94 66.0625 1054.52 66.0625C1058.96 66.0625 1062.58 67.5729 1065.4 70.5938C1068.21 73.6146 1069.62 77.8646 1069.62 83.3438C1069.62 83.6771 1069.6 84.1771 1069.58 84.8438H1044.83C1045.04 88.4896 1046.07 91.2812 1047.93 93.2188C1049.78 95.1562 1052.09 96.125 1054.87 96.125C1056.93 96.125 1058.69 95.5833 1060.15 94.5C1061.6 93.4167 1062.76 91.6875 1063.62 89.3125ZM1045.15 80.2188H1063.68C1063.43 77.4271 1062.72 75.3333 1061.55 73.9375C1059.76 71.7708 1057.44 70.6875 1054.58 70.6875C1052 70.6875 1049.82 71.5521 1048.05 73.2812C1046.3 75.0104 1045.33 77.3229 1045.15 80.2188ZM1077.15 90.0938L1082.71 89.2188C1083.03 91.4479 1083.89 93.1562 1085.31 94.3438C1086.75 95.5312 1088.75 96.125 1091.31 96.125C1093.89 96.125 1095.81 95.6042 1097.06 94.5625C1098.31 93.5 1098.93 92.2604 1098.93 90.8438C1098.93 89.5729 1098.38 88.5729 1097.28 87.8438C1096.51 87.3438 1094.59 86.7083 1091.53 85.9375C1087.4 84.8958 1084.54 84 1082.93 83.25C1081.35 82.4792 1080.14 81.4271 1079.31 80.0938C1078.5 78.7396 1078.09 77.25 1078.09 75.625C1078.09 74.1458 1078.42 72.7812 1079.09 71.5312C1079.78 70.2604 1080.7 69.2083 1081.87 68.375C1082.75 67.7292 1083.93 67.1875 1085.43 66.75C1086.95 66.2917 1088.58 66.0625 1090.31 66.0625C1092.91 66.0625 1095.19 66.4375 1097.15 67.1875C1099.13 67.9375 1100.59 68.9583 1101.53 70.25C1102.46 71.5208 1103.11 73.2292 1103.46 75.375L1097.96 76.125C1097.71 74.4167 1096.98 73.0833 1095.78 72.125C1094.59 71.1667 1092.9 70.6875 1090.71 70.6875C1088.13 70.6875 1086.29 71.1146 1085.18 71.9688C1084.08 72.8229 1083.53 73.8229 1083.53 74.9688C1083.53 75.6979 1083.76 76.3542 1084.21 76.9375C1084.67 77.5417 1085.39 78.0417 1086.37 78.4375C1086.93 78.6458 1088.59 79.125 1091.34 79.875C1095.32 80.9375 1098.09 81.8125 1099.65 82.5C1101.23 83.1667 1102.47 84.1458 1103.37 85.4375C1104.27 86.7292 1104.71 88.3333 1104.71 90.25C1104.71 92.125 1104.16 93.8958 1103.06 95.5625C1101.97 97.2083 1100.4 98.4896 1098.34 99.4062C1096.28 100.302 1093.94 100.75 1091.34 100.75C1087.03 100.75 1083.73 99.8542 1081.46 98.0625C1079.21 96.2708 1077.78 93.6146 1077.15 90.0938ZM1126.56 94.9688L1127.38 99.9375C1125.79 100.271 1124.38 100.438 1123.12 100.438C1121.08 100.438 1119.5 100.115 1118.38 99.4688C1117.25 98.8229 1116.46 97.9792 1116 96.9375C1115.54 95.875 1115.31 93.6562 1115.31 90.2812V71.1875H1111.19V66.8125H1115.31V58.5938L1120.91 55.2188V66.8125H1126.56V71.1875H1120.91V90.5938C1120.91 92.1979 1121 93.2292 1121.19 93.6875C1121.4 94.1458 1121.72 94.5104 1122.16 94.7812C1122.61 95.0521 1123.26 95.1875 1124.09 95.1875C1124.72 95.1875 1125.54 95.1146 1126.56 94.9688ZM1135.63 100V54.1875H1141.85L1165.91 90.1562V54.1875H1171.72V100H1165.51L1141.44 64V100H1135.63ZM1206.82 89.3125L1212.63 90.0312C1211.72 93.4271 1210.02 96.0625 1207.54 97.9375C1205.06 99.8125 1201.9 100.75 1198.04 100.75C1193.19 100.75 1189.33 99.2604 1186.48 96.2812C1183.65 93.2812 1182.23 89.0833 1182.23 83.6875C1182.23 78.1042 1183.67 73.7708 1186.54 70.6875C1189.42 67.6042 1193.15 66.0625 1197.73 66.0625C1202.17 66.0625 1205.79 67.5729 1208.6 70.5938C1211.42 73.6146 1212.82 77.8646 1212.82 83.3438C1212.82 83.6771 1212.81 84.1771 1212.79 84.8438H1188.04C1188.25 88.4896 1189.28 91.2812 1191.13 93.2188C1192.99 95.1562 1195.3 96.125 1198.07 96.125C1200.13 96.125 1201.9 95.5833 1203.35 94.5C1204.81 93.4167 1205.97 91.6875 1206.82 89.3125ZM1188.35 80.2188H1206.88C1206.63 77.4271 1205.93 75.3333 1204.76 73.9375C1202.97 71.7708 1200.65 70.6875 1197.79 70.6875C1195.21 70.6875 1193.03 71.5521 1191.26 73.2812C1189.51 75.0104 1188.54 77.3229 1188.35 80.2188ZM1234.89 94.9688L1235.7 99.9375C1234.12 100.271 1232.7 100.438 1231.45 100.438C1229.41 100.438 1227.83 100.115 1226.7 99.4688C1225.58 98.8229 1224.79 97.9792 1224.33 96.9375C1223.87 95.875 1223.64 93.6562 1223.64 90.2812V71.1875H1219.51V66.8125H1223.64V58.5938L1229.23 55.2188V66.8125H1234.89V71.1875H1229.23V90.5938C1229.23 92.1979 1229.33 93.2292 1229.51 93.6875C1229.72 94.1458 1230.05 94.5104 1230.48 94.7812C1230.94 95.0521 1231.59 95.1875 1232.42 95.1875C1233.05 95.1875 1233.87 95.1146 1234.89 94.9688Z" fill="white"/>
<path d="M547.211 222.715C571.835 222.96 588.207 213.272 588.425 191.431C588.572 176.656 580.733 168.227 566.872 162.306L549.176 154.421C542.354 151.355 539.805 149.188 539.844 145.334C539.88 141.693 542.259 139.361 549.968 139.438C558.961 139.528 568.781 142.624 577.736 146.568L586.735 124.6C575.215 120.202 563.035 117.511 551.686 117.398C526.847 117.15 513.25 127.722 513.058 146.994C512.93 159.842 519.47 169.758 535.034 176.766L552.729 184.651C558.483 187.493 561.248 189.447 561.209 193.302C561.16 198.227 557.07 200.327 548.934 200.246C536.942 200.127 525.638 195.517 515.846 189.638L504.918 211.8C517.907 219.211 533.506 222.579 547.211 222.715ZM654.911 223.788C668.401 223.922 679.356 220.605 689.698 214.283L678.564 192.543C672.1 196.548 664.578 199.257 655.584 199.167C639.31 199.005 627.646 187.539 627.813 170.837C627.979 154.135 639.869 142.903 656.143 143.066C665.136 143.155 672.603 146.013 678.987 150.146L690.551 128.632C680.337 122.106 669.45 118.571 655.96 118.436C624.055 118.119 601.148 138.877 600.833 170.568C600.517 202.259 623.006 223.47 654.911 223.788ZM743.274 224.668C759.334 224.828 770.108 218.082 776.42 207.866L776.849 207.87L776.71 221.789L802.834 222.049L803.819 123.121L777.695 122.861L777.557 136.78L777.129 136.775C771.021 126.435 760.383 119.477 744.323 119.317C718.414 119.059 696.599 137.686 696.262 171.519C695.925 205.351 717.364 224.41 743.274 224.668ZM750.159 199.895C734.314 199.737 723.504 188.494 723.671 171.792C723.837 155.09 734.868 144.064 750.714 144.222C766.559 144.379 777.369 155.623 777.203 172.325C777.036 189.027 766.005 200.053 750.159 199.895ZM888.459 120.752C873.898 120.607 862.695 127.348 855.944 138.631L855.516 138.627L855.665 123.638L829.755 123.38L828.77 222.307L854.894 222.568L855.376 174.174C855.589 152.762 865.304 144.935 878.794 145.069C891.642 145.197 899.068 152.124 898.908 168.184L898.362 223L924.7 223.263L925.308 162.236C925.598 133.115 909.872 120.966 888.459 120.752Z" fill="white"/>
<rect x="958" width="322" height="155" rx="77.5" fill="#00ADEE"/>
<path d="M1015.64 100V54.1875H1032.92C1035.96 54.1875 1038.29 54.3333 1039.89 54.625C1042.14 55 1044.03 55.7188 1045.55 56.7812C1047.07 57.8229 1048.29 59.2917 1049.2 61.1875C1050.14 63.0833 1050.61 65.1667 1050.61 67.4375C1050.61 71.3333 1049.37 74.6354 1046.89 77.3438C1044.41 80.0312 1039.93 81.375 1033.45 81.375H1021.7V100H1015.64ZM1021.7 75.9688H1033.55C1037.46 75.9688 1040.25 75.2396 1041.89 73.7812C1043.54 72.3229 1044.36 70.2708 1044.36 67.625C1044.36 65.7083 1043.87 64.0729 1042.89 62.7188C1041.93 61.3438 1040.66 60.4375 1039.08 60C1038.06 59.7292 1036.17 59.5938 1033.42 59.5938H1021.7V75.9688ZM1060.43 100V66.8125H1065.49V71.8438C1066.78 69.4896 1067.97 67.9375 1069.05 67.1875C1070.16 66.4375 1071.37 66.0625 1072.68 66.0625C1074.57 66.0625 1076.5 66.6667 1078.46 67.875L1076.52 73.0938C1075.15 72.2812 1073.77 71.875 1072.4 71.875C1071.17 71.875 1070.06 72.25 1069.08 73C1068.1 73.7292 1067.41 74.75 1066.99 76.0625C1066.37 78.0625 1066.05 80.25 1066.05 82.625V100H1060.43ZM1084.71 60.6562V54.1875H1090.34V60.6562H1084.71ZM1084.71 100V66.8125H1090.34V100H1084.71ZM1111.03 100L1098.41 66.8125H1104.34L1111.47 86.6875C1112.24 88.8333 1112.95 91.0625 1113.59 93.375C1114.09 91.625 1114.79 89.5208 1115.69 87.0625L1123.06 66.8125H1128.84L1116.28 100H1111.03ZM1158.35 95.9062C1156.27 97.6771 1154.26 98.9271 1152.32 99.6562C1150.4 100.385 1148.34 100.75 1146.13 100.75C1142.48 100.75 1139.68 99.8646 1137.72 98.0938C1135.77 96.3021 1134.79 94.0208 1134.79 91.25C1134.79 89.625 1135.15 88.1458 1135.88 86.8125C1136.63 85.4583 1137.6 84.375 1138.79 83.5625C1139.99 82.75 1141.35 82.1354 1142.85 81.7188C1143.95 81.4271 1145.62 81.1458 1147.85 80.875C1152.39 80.3333 1155.73 79.6875 1157.88 78.9375C1157.9 78.1667 1157.91 77.6771 1157.91 77.4688C1157.91 75.1771 1157.38 73.5625 1156.32 72.625C1154.88 71.3542 1152.74 70.7188 1149.91 70.7188C1147.27 70.7188 1145.31 71.1875 1144.04 72.125C1142.79 73.0417 1141.86 74.6771 1141.26 77.0312L1135.76 76.2812C1136.26 73.9271 1137.08 72.0312 1138.22 70.5938C1139.37 69.1354 1141.03 68.0208 1143.19 67.25C1145.36 66.4583 1147.87 66.0625 1150.72 66.0625C1153.56 66.0625 1155.86 66.3958 1157.63 67.0625C1159.4 67.7292 1160.7 68.5729 1161.54 69.5938C1162.37 70.5938 1162.95 71.8646 1163.29 73.4062C1163.47 74.3646 1163.57 76.0938 1163.57 78.5938V86.0938C1163.57 91.3229 1163.68 94.6354 1163.91 96.0312C1164.16 97.4062 1164.64 98.7292 1165.35 100H1159.47C1158.89 98.8333 1158.52 97.4688 1158.35 95.9062ZM1157.88 83.3438C1155.84 84.1771 1152.78 84.8854 1148.69 85.4688C1146.38 85.8021 1144.74 86.1771 1143.79 86.5938C1142.83 87.0104 1142.09 87.625 1141.57 88.4375C1141.05 89.2292 1140.79 90.1146 1140.79 91.0938C1140.79 92.5938 1141.35 93.8438 1142.47 94.8438C1143.62 95.8438 1145.29 96.3438 1147.47 96.3438C1149.64 96.3438 1151.57 95.875 1153.26 94.9375C1154.94 93.9792 1156.18 92.6771 1156.97 91.0312C1157.58 89.7604 1157.88 87.8854 1157.88 85.4062V83.3438ZM1187.48 94.9688L1188.29 99.9375C1186.71 100.271 1185.29 100.438 1184.04 100.438C1182 100.438 1180.42 100.115 1179.29 99.4688C1178.17 98.8229 1177.37 97.9792 1176.92 96.9375C1176.46 95.875 1176.23 93.6562 1176.23 90.2812V71.1875H1172.1V66.8125H1176.23V58.5938L1181.82 55.2188V66.8125H1187.48V71.1875H1181.82V90.5938C1181.82 92.1979 1181.92 93.2292 1182.1 93.6875C1182.31 94.1458 1182.63 94.5104 1183.07 94.7812C1183.53 95.0521 1184.18 95.1875 1185.01 95.1875C1185.63 95.1875 1186.46 95.1146 1187.48 94.9688ZM1218.61 89.3125L1224.42 90.0312C1223.5 93.4271 1221.81 96.0625 1219.33 97.9375C1216.85 99.8125 1213.68 100.75 1209.83 100.75C1204.97 100.75 1201.12 99.2604 1198.26 96.2812C1195.43 93.2812 1194.01 89.0833 1194.01 83.6875C1194.01 78.1042 1195.45 73.7708 1198.33 70.6875C1201.2 67.6042 1204.93 66.0625 1209.51 66.0625C1213.95 66.0625 1217.58 67.5729 1220.39 70.5938C1223.2 73.6146 1224.61 77.8646 1224.61 83.3438C1224.61 83.6771 1224.6 84.1771 1224.58 84.8438H1199.83C1200.04 88.4896 1201.07 91.2812 1202.92 93.2188C1204.78 95.1562 1207.09 96.125 1209.86 96.125C1211.92 96.125 1213.68 95.5833 1215.14 94.5C1216.6 93.4167 1217.75 91.6875 1218.61 89.3125ZM1200.14 80.2188H1218.67C1218.42 77.4271 1217.71 75.3333 1216.55 73.9375C1214.75 71.7708 1212.43 70.6875 1209.58 70.6875C1206.99 70.6875 1204.82 71.5521 1203.05 73.2812C1201.3 75.0104 1200.33 77.3229 1200.14 80.2188Z" fill="white"/>
<g clip-path="url(#clip0_1937_3445)">
<path d="M181.734 212.89C168.415 221.266 152.969 225.64 137.235 225.49C92.0553 225.49 58 192.922 58 146.245C58 99.5675 92.0553 67 137.247 67C182.438 67 216.471 99.5675 216.471 146.245C216.471 167.518 209.308 185.975 197.366 199.438L181.734 212.89ZM164.82 195.522L180.452 182.07C187.615 172.512 191.735 160.139 191.735 146.245C191.735 113.677 169.372 90.0095 137.247 90.0095C105.121 90.0095 82.7582 113.677 82.7582 146.245C82.7582 178.813 105.121 202.469 137.247 202.469C146.893 202.652 156.412 200.254 164.82 195.522Z" fill="white"/>
<path d="M305.457 70.2578L286.794 82.0634L295.036 98.4777L322.484 163.613H262.229L253 184.454H330.521L346.879 222.232H371.637L305.457 70.2578Z" fill="white"/>
<path d="M493.002 222.232H469.334L394.696 108.717H394.265V222.232H371.641V70.2578H395.298L469.992 183.773H470.424V70.2578H493.002V222.232Z" fill="white"/>
<path d="M159.516 162.523H130.648L189.042 222.232H217.705L159.516 162.523Z" fill="#00AEEF"/>
<path d="M305.456 70.2578H281.481L216.617 222.232H241.364L305.456 70.2578Z" fill="#00AEEF"/>
</g>
<defs>
<clipPath id="clip0_1937_3445">
<rect width="435" height="158.49" fill="white" transform="translate(58 67)"/>
</clipPath>
</defs>
</svg>
