<svg width="1719" height="394" viewBox="0 0 1719 394" fill="none" xmlns="http://www.w3.org/2000/svg">
<path d="M482.889 64.5854L455.481 64.3124L453.988 214.202L543.922 215.098L544.18 189.189L481.654 188.566L482.889 64.5854ZM589.568 66.9329L559.59 66.6343L559.302 95.5416L589.28 95.8402L589.568 66.9329ZM559.822 215.257L586.16 215.519L587.146 116.592L560.808 116.329L559.822 215.257ZM673.349 219.6C699.258 219.858 721.073 201.23 721.41 167.398C721.747 133.565 700.308 114.506 674.398 114.248C658.339 114.088 647.564 120.834 641.252 131.05L640.823 131.046L641.47 66.1649L615.132 65.9026L613.639 215.793L639.977 216.055L640.115 202.137L640.544 202.141C646.651 212.481 657.289 219.44 673.349 219.6ZM666.958 194.695C651.113 194.537 640.303 183.293 640.469 166.591C640.636 149.889 651.667 138.863 667.513 139.021C683.358 139.179 694.168 150.423 694.002 167.125C693.835 183.827 682.804 194.853 666.958 194.695ZM802.447 115.738L801.376 115.727C785.102 115.565 773.668 124.017 768.375 139.383L767.947 139.379L768.156 118.395L742.247 118.136L741.261 217.064L767.385 217.324L767.788 176.854C768.029 152.657 778.183 143.764 799.167 143.973L802.165 144.003L802.447 115.738ZM859.683 116.094C828.634 115.785 808.079 136.995 807.765 168.472C807.452 199.949 828.227 221.142 860.561 221.464C881.331 221.671 894.703 212.168 903.564 204.118L890.478 184.929C884.855 190.441 874.926 198.265 860.793 198.124C845.59 197.973 834.543 189.083 833.196 173.865L907.07 174.601L907.121 169.462C907.458 135.629 889.661 116.393 859.683 116.094ZM858.187 137.28C871.035 137.408 879.956 144.778 880.686 157.42L834.006 156.955C836.284 143.272 845.554 137.154 858.187 137.28ZM971.946 66.2445C943.253 65.9587 927.26 80.5757 927.027 103.916C926.867 119.975 934.667 132.474 950.403 143.552L974.427 161.138C983.995 168.086 989.511 173.28 989.434 180.989C989.344 189.982 982.216 196.122 968.084 195.981C953.737 195.838 939.664 189.702 927.744 182.516L915.289 207.447C929.334 216.367 947.477 222.33 966.963 222.524C998.44 222.838 1018.29 208.045 1018.57 179.78C1018.76 160.937 1009.88 148.856 993.295 137.341L967.567 118.882C959.488 113.019 956.1 109.131 956.157 103.349C956.224 96.7113 960.549 92.4714 971.898 92.5844C981.748 92.6825 992.42 96.2152 1003.71 102.11L1015.74 77.174C1001.88 70.6115 986.935 66.3938 971.946 66.2445ZM1087.84 223.728C1101.33 223.863 1112.28 220.545 1122.62 214.224L1111.49 192.484C1105.02 196.488 1097.5 199.197 1088.51 199.108C1072.23 198.946 1060.57 187.48 1060.74 170.777C1060.9 154.075 1072.79 142.844 1089.07 143.006C1098.06 143.096 1105.53 145.954 1111.91 150.086L1123.48 128.572C1113.26 122.046 1102.37 118.511 1088.88 118.377C1056.98 118.059 1034.07 138.818 1033.76 170.509C1033.44 202.2 1055.93 223.41 1087.84 223.728ZM1176.2 224.608C1192.26 224.768 1203.03 218.023 1209.34 207.807L1209.77 207.811L1209.63 221.729L1235.76 221.989L1236.74 123.062L1210.62 122.802L1210.48 136.72L1210.05 136.716C1203.95 126.376 1193.31 119.417 1177.25 119.257C1151.34 118.999 1129.52 137.627 1129.19 171.459C1128.85 205.292 1150.29 224.35 1176.2 224.608ZM1183.08 199.836C1167.24 199.678 1156.43 188.434 1156.59 171.732C1156.76 155.03 1167.79 144.004 1183.64 144.162C1199.48 144.32 1210.29 155.563 1210.13 172.266C1209.96 188.968 1198.93 199.993 1183.08 199.836ZM1321.38 120.693C1306.82 120.548 1295.62 127.289 1288.87 138.572L1288.44 138.567L1288.59 123.578L1262.68 123.32L1261.69 222.248L1287.82 222.508L1288.3 174.115C1288.51 152.702 1298.23 144.875 1311.72 145.01C1324.57 145.138 1331.99 152.064 1331.83 168.124L1331.29 222.941L1357.62 223.203L1358.23 162.177C1358.52 133.055 1342.8 120.906 1321.38 120.693Z" fill="white"/>
<path d="M472.055 265.118L473.199 265.129L473.268 258.189L471.819 258.174C463.125 258.088 458.191 263.378 458.104 272.072L458.055 276.953L452.488 276.897L452.425 283.227L457.992 283.283L457.704 312.187L465.178 312.262L465.466 283.357L472.406 283.427L472.469 277.097L465.529 277.027L465.58 271.918C465.631 266.808 468.47 265.082 472.055 265.118ZM496.917 276.196C485.859 276.086 477.543 283.935 477.435 294.765C477.327 305.595 485.485 313.608 496.544 313.718C507.602 313.828 515.918 305.979 516.025 295.149C516.133 284.32 507.976 276.306 496.917 276.196ZM496.844 283.517C503.556 283.584 508.163 288.13 508.094 295.07C508.025 302.01 503.328 306.464 496.616 306.397C489.905 306.33 485.298 301.784 485.367 294.844C485.436 287.904 490.133 283.451 496.844 283.517ZM538.673 314.138C544.393 314.195 547.778 311.254 549.567 307.763L549.72 307.765L549.666 313.103L557.14 313.178L557.491 277.943L550.017 277.869L549.849 294.724C549.761 303.647 546.066 306.966 540.88 306.914C536.381 306.869 533.51 304.095 533.568 298.299L533.773 277.707L526.146 277.631L525.934 298.985C525.826 309.815 531.733 314.069 538.673 314.138ZM589.257 277.116C583.842 277.062 580.005 279.464 577.676 283.484L577.524 283.482L577.577 278.143L570.103 278.069L569.752 313.303L577.226 313.378L577.394 296.523C577.481 287.753 581.403 284.512 586.895 284.567C591.928 284.617 594.954 287.164 594.894 293.189L594.691 313.552L602.165 313.626L602.38 291.967C602.487 281.29 596.807 277.191 589.257 277.116ZM629.23 315.04C635.027 315.098 638.941 312.62 641.191 308.829L641.343 308.83L641.292 314.016L648.766 314.09L649.297 260.705L641.823 260.631L641.591 283.968L641.438 283.966C639.265 280.131 635.4 277.575 629.604 277.518C620.3 277.425 612.375 284.363 612.258 296.108C612.141 307.853 619.926 314.947 629.23 315.04ZM630.905 307.735C624.346 307.669 620.122 302.898 620.189 296.187C620.256 289.476 624.574 284.79 631.133 284.855C637.692 284.92 641.915 289.691 641.848 296.403C641.782 303.114 637.464 307.8 630.905 307.735ZM677.817 277.998C666.529 277.885 659.737 285.979 659.631 296.656C659.52 307.791 666.613 315.412 677.824 315.524C686.519 315.611 691.219 310.852 693.847 307.294L688.634 302.284C686.857 304.631 683.539 308.411 677.743 308.354C671.718 308.294 667.412 304.132 667.169 297.875L694.472 298.147L694.484 296.927C694.598 285.563 688.57 278.105 677.817 277.998ZM677.291 284.857C682.629 284.91 686.186 287.768 686.442 292.652L667.605 292.464C668.571 287.364 672.257 284.807 677.291 284.857ZM719.435 315.938C725.231 315.996 729.145 313.518 731.395 309.727L731.548 309.729L731.496 314.915L738.97 314.989L739.502 261.603L732.028 261.529L731.795 284.866L731.643 284.865C729.469 281.029 725.605 278.474 719.808 278.416C710.504 278.323 702.579 285.262 702.462 297.006C702.345 308.751 710.13 315.846 719.435 315.938ZM721.109 308.633C714.55 308.568 710.327 303.797 710.393 297.085C710.46 290.374 714.778 285.688 721.337 285.753C727.896 285.819 732.12 290.59 732.053 297.301C731.986 304.012 727.668 308.698 721.109 308.633ZM797.394 316.715C806.698 316.808 814.623 309.87 814.74 298.125C814.857 286.38 807.072 279.285 797.767 279.193C791.971 279.135 788.057 281.613 785.807 285.404L785.654 285.403L785.887 262.065L778.413 261.991L777.881 315.377L785.355 315.451L785.407 310.265L785.559 310.267C787.733 314.102 791.597 316.657 797.394 316.715ZM795.865 309.378C789.306 309.312 785.082 304.541 785.149 297.83C785.216 291.119 789.534 286.433 796.093 286.498C802.652 286.563 806.875 291.334 806.809 298.046C806.742 304.757 802.424 309.443 795.865 309.378ZM847.083 280.828L837.472 303.843L828.016 280.638L819.093 280.549L833.57 312.728L824.921 331.1L832.852 331.179L855.319 280.91L847.083 280.828ZM942.281 317.014L934.582 308.929C938.824 304.242 941.405 297.785 941.479 290.311C941.643 273.914 929.783 262.355 913.92 262.197C898.057 262.039 885.969 273.359 885.806 289.756C885.642 306.153 897.502 317.712 913.365 317.87C919.238 317.929 924.592 316.38 929.044 313.603L932.214 316.914L942.281 317.014ZM913.446 309.786C902.159 309.674 894.386 301.283 894.5 289.843C894.614 278.403 902.552 270.168 913.839 270.281C925.127 270.393 932.899 278.784 932.785 290.224C932.736 295.105 931.244 299.438 928.694 302.768L922.051 295.838L911.908 295.737L923.156 307.442C920.394 309.016 917.106 309.823 913.446 309.786ZM987.549 317.465L996.243 317.552L974.963 263.949L967.641 263.876L945.298 317.044L953.992 317.131L959.234 303.912L982.571 304.144L987.549 317.465ZM962.129 296.618L971.203 273.827L979.822 296.794L962.129 296.618ZM1048.54 264.682L1040.61 264.603L1040.21 304.489L1040.06 304.488L1014.22 264.34L1005.91 264.257L1005.37 317.643L1013.31 317.722L1013.7 277.835L1013.86 277.836L1039.69 317.984L1048.01 318.067L1048.54 264.682ZM1061.22 333.453L1068.69 333.528L1068.9 313.089L1069.05 313.09C1071.22 316.926 1075.09 319.481 1080.88 319.539C1090.19 319.631 1098.11 312.693 1098.23 300.948C1098.35 289.204 1090.56 282.109 1081.26 282.016C1075.46 281.959 1071.55 284.437 1069.3 288.228L1069.14 288.226L1069.19 283.04L1061.72 282.966L1061.22 333.453ZM1079.35 312.201C1072.79 312.136 1068.57 307.365 1068.64 300.654C1068.7 293.942 1073.02 289.257 1079.58 289.322C1086.14 289.387 1090.36 294.158 1090.3 300.869C1090.23 307.581 1085.91 312.267 1079.35 312.201ZM1116.76 265.361L1109.28 265.287L1108.75 318.672L1116.23 318.747L1116.76 265.361ZM1144.02 320.168C1149.81 320.225 1153.73 317.747 1155.98 313.956L1156.13 313.958L1156.08 319.144L1163.55 319.218L1163.9 283.984L1156.43 283.909L1156.38 289.095L1156.22 289.094C1154.05 285.258 1150.19 282.703 1144.39 282.645C1135.09 282.553 1127.16 289.491 1127.04 301.236C1126.93 312.98 1134.71 320.075 1144.02 320.168ZM1145.69 312.862C1139.13 312.797 1134.91 308.026 1134.98 301.315C1135.04 294.603 1139.36 289.917 1145.92 289.983C1152.48 290.048 1156.7 294.819 1156.63 301.53C1156.57 308.242 1152.25 312.927 1145.69 312.862ZM1193.91 290.613L1193.97 284.283L1186.8 284.212L1186.94 270.103L1179.47 270.028L1179.33 284.137L1173.08 284.075L1173.01 290.405L1179.27 290.467L1179.07 310.373C1179.01 316.169 1182.33 319.481 1188.51 319.543L1191.94 319.577L1192.01 312.713L1190.18 312.695C1187.59 312.669 1186.53 311.515 1186.56 308.998L1186.74 290.542L1193.91 290.613ZM1219.99 272.568L1221.14 272.579L1221.2 265.639L1219.76 265.624C1211.06 265.538 1206.13 270.828 1206.04 279.522L1205.99 284.403L1200.42 284.347L1200.36 290.677L1205.93 290.733L1205.64 319.637L1213.11 319.712L1213.4 290.807L1220.34 290.876L1220.41 284.546L1213.47 284.477L1213.52 279.368C1213.57 274.258 1216.41 272.532 1219.99 272.568ZM1244.85 283.646C1233.8 283.536 1225.48 291.385 1225.37 302.215C1225.26 313.045 1233.42 321.058 1244.48 321.168C1255.54 321.278 1263.85 313.429 1263.96 302.599C1264.07 291.77 1255.91 283.756 1244.85 283.646ZM1244.78 290.967C1251.49 291.034 1256.1 295.58 1256.03 302.52C1255.96 309.46 1251.26 313.914 1244.55 313.847C1237.84 313.78 1233.23 309.234 1233.3 302.294C1233.37 295.354 1238.07 290.901 1244.78 290.967ZM1294.3 284.215L1293.77 284.209C1287.82 284.15 1283.74 287.618 1282.01 292.864L1281.86 292.862L1281.94 285.159L1274.46 285.085L1274.11 320.319L1281.59 320.394L1281.74 304.76C1281.83 296.37 1285.75 292.901 1293.07 292.974L1294.22 292.985L1294.3 284.215ZM1302.72 320.604L1310.19 320.679L1310.37 302.451C1310.45 294.749 1313.84 291.808 1318.34 291.853C1322.91 291.898 1325.33 294.515 1325.28 299.396L1325.06 320.827L1332.54 320.901L1332.72 302.598C1332.8 294.971 1336.18 292.03 1340.76 292.076C1345.26 292.121 1347.67 294.738 1347.62 299.619L1347.41 321.049L1354.88 321.124L1355.1 299.312C1355.21 288.864 1349.83 284.692 1343.2 284.625C1338.77 284.581 1334.25 286.672 1332.07 291.684L1331.91 291.683C1329.9 286.705 1326.34 284.458 1321.31 284.407C1316.81 284.363 1312.75 286.229 1310.64 290.937L1310.49 290.935L1310.54 285.444L1303.07 285.37L1302.72 320.604Z" fill="#D5D5D5"/>
<path fill-rule="evenodd" clip-rule="evenodd" d="M387.237 148.844C348.103 203.272 295.212 247.145 233.655 275.374L233.556 274.558L277.364 197.087L295.152 168.754L249.368 89.1304L187.738 120.269V143.737L215.112 151.897L231.74 132.003L228.806 143.737L238.499 157.994H252.273L220.006 173.071L192.275 219.143L199.472 181.871L164.271 196.538L133.863 224.459L102.759 193.356L119.591 253.04L139.683 280.656L140.39 304.506C118.253 308.433 95.4679 310.481 72.204 310.481C59.708 310.481 47.35 309.89 35.1566 308.735C12.9947 276.92 0 238.243 0 196.531C0 87.9901 87.9901 0 196.531 0C288.627 0 365.927 63.3464 387.237 148.844ZM89.8034 160.365L132.952 210.935L152.056 191.21L111.212 136.334L89.8034 160.365ZM161.708 187.398L117.571 124.272L146.671 102.669L188.059 172.693L161.708 187.398ZM177.895 132.003V114.403L199.472 102.669L181.872 67.4678L152.537 88.0018L177.895 132.003ZM193.605 61.601L217.073 44.0005L240.54 82.1349L211.206 96.802L193.605 61.601ZM187.738 155.47L202.405 173.071L222.939 162.89L187.738 155.47Z" fill="white"/>
<path fill-rule="evenodd" clip-rule="evenodd" d="M63.8047 341.594C71.8142 342.11 79.8927 342.371 88.0323 342.371C213.976 342.371 325.294 279.753 392.552 183.952C392.816 188.117 392.949 192.316 392.949 196.547C392.949 305.088 304.959 393.078 196.418 393.078C145.31 393.078 98.7594 373.57 63.8047 341.594Z" fill="#00ADEE"/>
<rect x="1397" width="322" height="155" rx="77.5" fill="#00ADEE"/>
<path d="M1462.59 100V54.1875H1478.37C1481.93 54.1875 1484.65 54.4062 1486.52 54.8438C1489.15 55.4479 1491.39 56.5417 1493.24 58.125C1495.66 60.1667 1497.46 62.7812 1498.65 65.9688C1499.86 69.1354 1500.46 72.7604 1500.46 76.8438C1500.46 80.3229 1500.06 83.4062 1499.24 86.0938C1498.43 88.7812 1497.39 91.0104 1496.12 92.7812C1494.85 94.5312 1493.45 95.9167 1491.93 96.9375C1490.43 97.9375 1488.61 98.6979 1486.46 99.2188C1484.34 99.7396 1481.89 100 1479.12 100H1462.59ZM1468.65 94.5938H1478.43C1481.45 94.5938 1483.82 94.3125 1485.52 93.75C1487.25 93.1875 1488.63 92.3958 1489.65 91.375C1491.09 89.9375 1492.2 88.0104 1492.99 85.5938C1493.81 83.1562 1494.21 80.2083 1494.21 76.75C1494.21 71.9583 1493.42 68.2812 1491.84 65.7188C1490.27 63.1354 1488.37 61.4062 1486.12 60.5312C1484.49 59.9062 1481.88 59.5938 1478.27 59.5938H1468.65V94.5938ZM1511.84 100V54.1875H1544.97V59.5938H1517.9V73.625H1543.25V79H1517.9V94.5938H1546.03V100H1511.84ZM1557.1 100V54.1875H1566.22L1577.07 86.625C1578.07 89.6458 1578.79 91.9062 1579.25 93.4062C1579.77 91.7396 1580.59 89.2917 1581.69 86.0625L1592.66 54.1875H1600.82V100H1594.97V61.6562L1581.66 100H1576.19L1562.94 61V100H1557.1ZM1611.63 77.6875C1611.63 70.0833 1613.67 64.1354 1617.76 59.8438C1621.84 55.5312 1627.11 53.375 1633.57 53.375C1637.8 53.375 1641.61 54.3854 1645.01 56.4062C1648.4 58.4271 1650.99 61.25 1652.76 64.875C1654.55 68.4792 1655.45 72.5729 1655.45 77.1562C1655.45 81.8021 1654.51 85.9583 1652.63 89.625C1650.76 93.2917 1648.1 96.0729 1644.66 97.9688C1641.23 99.8438 1637.52 100.781 1633.54 100.781C1629.23 100.781 1625.37 99.7396 1621.98 97.6562C1618.58 95.5729 1616.01 92.7292 1614.26 89.125C1612.51 85.5208 1611.63 81.7083 1611.63 77.6875ZM1617.88 77.7812C1617.88 83.3021 1619.36 87.6562 1622.32 90.8438C1625.3 94.0104 1629.03 95.5938 1633.51 95.5938C1638.07 95.5938 1641.82 93.9896 1644.76 90.7812C1647.72 87.5729 1649.2 83.0208 1649.2 77.125C1649.2 73.3958 1648.56 70.1458 1647.29 67.375C1646.04 64.5833 1644.2 62.4271 1641.76 60.9062C1639.34 59.3646 1636.62 58.5938 1633.6 58.5938C1629.31 58.5938 1625.61 60.0729 1622.51 63.0312C1619.42 65.9688 1617.88 70.8854 1617.88 77.7812Z" fill="white"/>
</svg>
