<svg width="1280" height="377" viewBox="0 0 1280 377" fill="none" xmlns="http://www.w3.org/2000/svg">
<path d="M546.593 222.715C571.218 222.96 587.59 213.272 587.808 191.431C587.955 176.656 580.115 168.227 566.255 162.306L548.559 154.421C541.736 151.355 539.188 149.188 539.227 145.334C539.263 141.693 541.642 139.361 549.35 139.438C558.344 139.528 568.164 142.624 577.119 146.568L586.118 124.6C574.597 120.202 562.418 117.511 551.069 117.398C526.23 117.15 512.633 127.722 512.441 146.994C512.313 159.842 518.853 169.758 534.416 176.766L552.112 184.651C557.866 187.493 560.63 189.447 560.592 193.302C560.543 198.227 556.453 200.327 548.316 200.246C536.325 200.127 525.021 195.517 515.229 189.638L504.3 211.8C517.29 219.211 532.889 222.579 546.593 222.715ZM654.294 223.788C667.784 223.922 678.738 220.605 689.08 214.283L677.947 192.543C671.483 196.548 663.96 199.257 654.967 199.167C638.693 199.005 627.029 187.539 627.196 170.837C627.362 154.135 639.252 142.903 655.526 143.066C664.519 143.155 671.986 146.013 678.369 150.146L689.934 128.632C679.719 122.106 668.833 118.571 655.343 118.436C623.438 118.119 600.531 138.877 600.215 170.568C599.9 202.259 622.388 223.47 654.294 223.788ZM742.657 224.668C758.716 224.828 769.491 218.082 775.803 207.866L776.232 207.87L776.093 221.789L802.217 222.049L803.202 123.121L777.078 122.861L776.94 136.78L776.511 136.775C770.404 126.435 759.766 119.477 743.706 119.317C717.797 119.059 695.982 137.686 695.645 171.519C695.308 205.351 716.747 224.41 742.657 224.668ZM749.542 199.895C733.697 199.737 722.887 188.494 723.053 171.792C723.22 155.09 734.251 144.064 750.097 144.222C765.942 144.379 776.752 155.623 776.586 172.325C776.419 189.027 765.388 200.053 749.542 199.895ZM887.842 120.752C873.281 120.607 862.078 127.348 855.327 138.631L854.899 138.627L855.048 123.638L829.138 123.38L828.153 222.307L854.277 222.568L854.759 174.174C854.972 152.762 864.687 144.935 878.177 145.069C891.024 145.197 898.451 152.124 898.291 168.184L897.745 223L924.083 223.263L924.69 162.236C924.981 133.115 909.254 120.966 887.842 120.752Z" fill="#010101"/>
<path d="M367.047 316.806C361.251 316.749 357.387 314.193 355.213 310.358L355.06 310.356L355.009 315.542L347.535 315.468L348.067 262.082L355.541 262.157L355.308 285.494L355.461 285.495C357.71 281.704 361.625 279.226 367.421 279.284C376.725 279.377 384.511 286.471 384.394 298.216C384.277 309.961 376.352 316.899 367.047 316.806ZM365.519 309.469C372.077 309.534 376.395 304.848 376.462 298.137C376.529 291.426 372.305 286.655 365.747 286.589C359.188 286.524 354.87 291.21 354.803 297.921C354.736 304.633 358.96 309.404 365.519 309.469ZM416.736 280.919L424.973 281.001L402.506 331.27L394.574 331.191L403.224 312.819L388.747 280.641L397.67 280.729L407.126 303.934L416.736 280.919ZM511.935 317.105L501.868 317.005L498.697 313.694C494.246 316.472 488.891 318.02 483.019 317.962C467.156 317.804 455.296 306.245 455.46 289.848C455.623 273.451 467.71 262.13 483.574 262.288C499.437 262.446 511.296 274.005 511.133 290.402C511.059 297.876 508.477 304.334 504.236 309.02L511.935 317.105ZM483.1 309.877C486.76 309.914 490.048 309.108 492.809 307.533L481.561 295.828L491.705 295.929L498.348 302.86C500.898 299.529 502.39 295.196 502.439 290.315C502.553 278.876 494.78 270.485 483.493 270.372C472.206 270.26 464.268 278.494 464.154 289.934C464.04 301.374 471.812 309.765 483.1 309.877ZM557.202 317.556L552.225 304.235L528.888 304.003L523.646 317.222L514.951 317.136L537.295 263.967L544.616 264.04L565.897 317.643L557.202 317.556ZM531.782 296.71L549.476 296.886L540.857 273.918L531.782 296.71ZM618.192 264.773L617.66 318.159L609.347 318.076L583.509 277.928L583.357 277.926L582.96 317.813L575.028 317.734L575.56 264.348L583.873 264.431L609.711 304.579L609.863 304.581L610.26 264.694L618.192 264.773ZM630.871 333.545L631.374 283.057L638.848 283.132L638.797 288.318L638.949 288.319C641.199 284.528 645.113 282.05 650.91 282.108C660.214 282.2 667.999 289.295 667.882 301.04C667.765 312.785 659.84 319.723 650.536 319.63C644.74 319.572 640.875 317.017 638.701 313.182L638.549 313.18L638.345 333.619L630.871 333.545ZM649.007 312.293C655.566 312.358 659.884 307.672 659.951 300.961C660.018 294.25 655.794 289.479 649.235 289.413C642.676 289.348 638.358 294.034 638.291 300.745C638.225 307.456 642.448 312.227 649.007 312.293ZM686.412 265.453L685.88 318.838L678.406 318.764L678.938 265.378L686.412 265.453ZM713.67 320.259C704.366 320.166 696.58 313.072 696.697 301.327C696.814 289.582 704.739 282.644 714.044 282.737C719.84 282.794 723.704 285.35 725.878 289.185L726.031 289.187L726.082 284.001L733.556 284.075L733.205 319.309L725.731 319.235L725.783 314.049L725.63 314.047C723.381 317.839 719.466 320.317 713.67 320.259ZM715.345 312.953C721.903 313.019 726.221 308.333 726.288 301.622C726.355 294.91 722.131 290.139 715.572 290.074C709.014 290.009 704.696 294.695 704.629 301.406C704.562 308.117 708.786 312.888 715.345 312.953ZM763.564 290.705L756.395 290.633L756.211 309.089C756.186 311.606 757.242 312.761 759.835 312.786L761.666 312.805L761.597 319.669L758.165 319.634C751.988 319.573 748.665 316.26 748.723 310.464L748.921 290.559L742.667 290.496L742.73 284.166L748.984 284.229L749.124 270.12L756.598 270.194L756.458 284.303L763.627 284.375L763.564 290.705ZM789.645 272.659C786.061 272.623 783.221 274.349 783.171 279.459L783.12 284.569L790.06 284.638L789.997 290.968L783.057 290.899L782.769 319.803L775.295 319.729L775.583 290.824L770.015 290.769L770.078 284.439L775.646 284.494L775.694 279.613C775.781 270.919 780.715 265.629 789.409 265.716L790.858 265.73L790.789 272.67L789.645 272.659ZM814.508 283.737C825.566 283.847 833.724 291.861 833.616 302.691C833.508 313.52 825.192 321.37 814.134 321.26C803.075 321.15 794.918 313.136 795.026 302.306C795.133 291.477 803.449 283.627 814.508 283.737ZM814.435 291.059C807.723 290.992 803.026 295.445 802.957 302.385C802.888 309.325 807.495 313.871 814.207 313.938C820.918 314.005 825.615 309.552 825.684 302.612C825.753 295.672 821.146 291.126 814.435 291.059ZM863.957 284.306L863.87 293.077L862.726 293.065C855.405 292.992 851.48 296.462 851.397 304.851L851.241 320.485L843.767 320.411L844.118 285.176L851.592 285.251L851.515 292.954L851.668 292.955C853.398 287.709 857.475 284.242 863.424 284.301L863.957 284.306ZM872.372 320.696L872.723 285.461L880.197 285.536L880.143 291.027L880.295 291.028C882.401 286.32 886.462 284.454 890.962 284.499C895.996 284.549 899.558 286.796 901.568 291.774L901.72 291.776C903.906 286.763 908.427 284.673 912.85 284.717C919.485 284.783 924.859 288.955 924.755 299.403L924.538 321.215L917.064 321.141L917.277 299.71C917.326 294.829 914.911 292.212 910.411 292.167C905.836 292.122 902.45 295.063 902.374 302.689L902.192 320.993L894.718 320.918L894.931 299.488C894.98 294.607 892.565 291.99 887.99 291.944C883.49 291.899 880.105 294.84 880.028 302.543L879.846 320.77L872.372 320.696Z" fill="#D5D5D5"/>
<rect x="957.383" width="322" height="155" rx="77.5" fill="#00ADEE"/>
<path d="M1015.02 100V54.1875H1032.31C1035.35 54.1875 1037.67 54.3333 1039.27 54.625C1041.52 55 1043.41 55.7188 1044.93 56.7812C1046.45 57.8229 1047.67 59.2917 1048.59 61.1875C1049.52 63.0833 1049.99 65.1667 1049.99 67.4375C1049.99 71.3333 1048.75 74.6354 1046.27 77.3438C1043.79 80.0312 1039.32 81.375 1032.84 81.375H1021.09V100H1015.02ZM1021.09 75.9688H1032.93C1036.85 75.9688 1039.63 75.2396 1041.27 73.7812C1042.92 72.3229 1043.74 70.2708 1043.74 67.625C1043.74 65.7083 1043.25 64.0729 1042.27 62.7188C1041.32 61.3438 1040.04 60.4375 1038.46 60C1037.44 59.7292 1035.56 59.5938 1032.81 59.5938H1021.09V75.9688ZM1059.81 100V66.8125H1064.87V71.8438C1066.16 69.4896 1067.35 67.9375 1068.44 67.1875C1069.54 66.4375 1070.75 66.0625 1072.06 66.0625C1073.96 66.0625 1075.88 66.6667 1077.84 67.875L1075.9 73.0938C1074.53 72.2812 1073.15 71.875 1071.78 71.875C1070.55 71.875 1069.45 72.25 1068.47 73C1067.49 73.7292 1066.79 74.75 1066.37 76.0625C1065.75 78.0625 1065.44 80.25 1065.44 82.625V100H1059.81ZM1084.1 60.6562V54.1875H1089.72V60.6562H1084.1ZM1084.1 100V66.8125H1089.72V100H1084.1ZM1110.41 100L1097.79 66.8125H1103.73L1110.85 86.6875C1111.62 88.8333 1112.33 91.0625 1112.98 93.375C1113.48 91.625 1114.17 89.5208 1115.07 87.0625L1122.45 66.8125H1128.23L1115.66 100H1110.41ZM1157.73 95.9062C1155.65 97.6771 1153.64 98.9271 1151.7 99.6562C1149.78 100.385 1147.72 100.75 1145.51 100.75C1141.87 100.75 1139.06 99.8646 1137.11 98.0938C1135.15 96.3021 1134.17 94.0208 1134.17 91.25C1134.17 89.625 1134.53 88.1458 1135.26 86.8125C1136.01 85.4583 1136.98 84.375 1138.17 83.5625C1139.38 82.75 1140.73 82.1354 1142.23 81.7188C1143.34 81.4271 1145 81.1458 1147.23 80.875C1151.77 80.3333 1155.12 79.6875 1157.26 78.9375C1157.28 78.1667 1157.29 77.6771 1157.29 77.4688C1157.29 75.1771 1156.76 73.5625 1155.7 72.625C1154.26 71.3542 1152.13 70.7188 1149.29 70.7188C1146.65 70.7188 1144.69 71.1875 1143.42 72.125C1142.17 73.0417 1141.24 74.6771 1140.64 77.0312L1135.14 76.2812C1135.64 73.9271 1136.46 72.0312 1137.61 70.5938C1138.75 69.1354 1140.41 68.0208 1142.58 67.25C1144.74 66.4583 1147.25 66.0625 1150.11 66.0625C1152.94 66.0625 1155.24 66.3958 1157.01 67.0625C1158.78 67.7292 1160.09 68.5729 1160.92 69.5938C1161.75 70.5938 1162.34 71.8646 1162.67 73.4062C1162.86 74.3646 1162.95 76.0938 1162.95 78.5938V86.0938C1162.95 91.3229 1163.06 94.6354 1163.29 96.0312C1163.54 97.4062 1164.02 98.7292 1164.73 100H1158.86C1158.27 98.8333 1157.9 97.4688 1157.73 95.9062ZM1157.26 83.3438C1155.22 84.1771 1152.16 84.8854 1148.08 85.4688C1145.76 85.8021 1144.13 86.1771 1143.17 86.5938C1142.21 87.0104 1141.47 87.625 1140.95 88.4375C1140.43 89.2292 1140.17 90.1146 1140.17 91.0938C1140.17 92.5938 1140.73 93.8438 1141.86 94.8438C1143 95.8438 1144.67 96.3438 1146.86 96.3438C1149.02 96.3438 1150.95 95.875 1152.64 94.9375C1154.33 93.9792 1155.56 92.6771 1156.36 91.0312C1156.96 89.7604 1157.26 87.8854 1157.26 85.4062V83.3438ZM1186.86 94.9688L1187.67 99.9375C1186.09 100.271 1184.67 100.438 1183.42 100.438C1181.38 100.438 1179.8 100.115 1178.67 99.4688C1177.55 98.8229 1176.76 97.9792 1176.3 96.9375C1175.84 95.875 1175.61 93.6562 1175.61 90.2812V71.1875H1171.49V66.8125H1175.61V58.5938L1181.21 55.2188V66.8125H1186.86V71.1875H1181.21V90.5938C1181.21 92.1979 1181.3 93.2292 1181.49 93.6875C1181.69 94.1458 1182.02 94.5104 1182.46 94.7812C1182.91 95.0521 1183.56 95.1875 1184.39 95.1875C1185.02 95.1875 1185.84 95.1146 1186.86 94.9688ZM1217.99 89.3125L1223.8 90.0312C1222.89 93.4271 1221.19 96.0625 1218.71 97.9375C1216.23 99.8125 1213.06 100.75 1209.21 100.75C1204.36 100.75 1200.5 99.2604 1197.65 96.2812C1194.81 93.2812 1193.4 89.0833 1193.4 83.6875C1193.4 78.1042 1194.84 73.7708 1197.71 70.6875C1200.59 67.6042 1204.31 66.0625 1208.9 66.0625C1213.34 66.0625 1216.96 67.5729 1219.77 70.5938C1222.59 73.6146 1223.99 77.8646 1223.99 83.3438C1223.99 83.6771 1223.98 84.1771 1223.96 84.8438H1199.21C1199.42 88.4896 1200.45 91.2812 1202.3 93.2188C1204.16 95.1562 1206.47 96.125 1209.24 96.125C1211.3 96.125 1213.06 95.5833 1214.52 94.5C1215.98 93.4167 1217.14 91.6875 1217.99 89.3125ZM1199.52 80.2188H1218.05C1217.8 77.4271 1217.1 75.3333 1215.93 73.9375C1214.14 71.7708 1211.81 70.6875 1208.96 70.6875C1206.38 70.6875 1204.2 71.5521 1202.43 73.2812C1200.68 75.0104 1199.71 77.3229 1199.52 80.2188Z" fill="white"/>
<g clip-path="url(#clip0_1937_3444)">
<path d="M180.746 213.893C167.426 222.27 151.981 226.644 136.247 226.493C91.0894 226.493 57 193.925 57 147.247C57 100.568 91.0553 68 136.247 68C181.438 68 215.471 100.568 215.471 147.247C215.471 168.52 208.308 186.978 196.366 200.441L180.746 213.893ZM163.82 196.525L179.452 183.073C186.615 173.515 190.735 161.141 190.735 147.247C190.735 114.678 168.372 91.01 136.247 91.01C104.121 91.01 81.7582 114.678 81.7582 147.247C81.7582 179.815 104.121 203.472 136.247 203.472C145.893 203.655 155.412 201.256 163.82 196.525Z" fill="#010101"/>
<path d="M304.457 71.2578L285.794 83.0637L294.036 99.4783L321.484 164.615H261.229L252 185.457H329.521L345.879 223.235H370.637L304.457 71.2578Z" fill="#010101"/>
<path d="M492.002 223.235H468.334L393.696 109.684H393.265V223.201H370.641V71.2578H394.298L468.992 184.776H469.424V71.2578H492.002V223.235Z" fill="#010101"/>
<path d="M158.516 163.525H129.648L188.042 223.236H216.705L158.516 163.525Z" fill="#00AEEF"/>
<path d="M304.456 71.2578H280.481L215.617 223.235H240.364L304.456 71.2578Z" fill="#00AEEF"/>
</g>
<defs>
<clipPath id="clip0_1937_3444">
<rect width="435" height="158.493" fill="white" transform="translate(57 68)"/>
</clipPath>
</defs>
</svg>
