<svg id="Layer_1" data-name="Layer 1" xmlns="http://www.w3.org/2000/svg" viewBox="0 0 383.2 139.62">
  <defs>
    <style>
      .cls-1 {
        fill: #fff;
      }

      .cls-2 {
        fill: #00aeef;
      }
    </style>
  </defs>
  <title>QAN_logo_white</title>
  <g>
    <path class="cls-1" d="M109,128.52a72.34,72.34,0,0,1-39.2,11.1C30,139.62,0,110.93,0,69.81S30,0,69.81,0,139.6,28.69,139.6,69.81c0,18.74-6.31,35-16.83,46.86ZM94.1,113.22l13.77-11.85c6.31-8.42,9.94-19.32,9.94-31.56,0-28.69-19.7-49.54-48-49.54s-48,20.85-48,49.54,19.7,49.53,48,49.53A47.68,47.68,0,0,0,94.1,113.22Z" transform="translate(0 0)"/>
    <polygon class="cls-1" points="217.99 2.87 201.55 13.27 208.81 27.73 232.99 85.11 179.91 85.11 171.78 103.47 240.07 103.47 254.48 136.75 276.29 136.75 217.99 2.87"/>
    <path class="cls-1" d="M383.2,136.75H362.35l-65.75-100h-.38v100H276.29V2.87h20.84l65.8,100h.38V2.87H383.2Z" transform="translate(0 0)"/>
    <polygon class="cls-2" points="89.43 84.15 64 84.15 115.44 136.75 140.69 136.75 89.43 84.15"/>
    <polygon class="cls-2" points="217.99 2.87 196.87 2.87 139.73 136.75 161.53 136.75 217.99 2.87"/>
  </g>
</svg>
